<svg width="250.725" height="226.958" viewBox="0 0 66.338 60.049" xml:space="preserve" xmlns="http://www.w3.org/2000/svg"><path style="fill:none;stroke:gray;stroke-width:.26458333;stroke-dasharray:1.05833328,.26458332;stroke-dashoffset:0;paint-order:stroke markers fill" d="m6.193 61.959-2.756-.282-.986-.686-.741-2.932 1.016-5.729.738-6.586c1.11-.732 2.359-1.185 3.19-2.48.22-.368.353-.755.94-1.043-.085-.659-.003-1.267.05-1.884-.423-.268-.65-.685-.745-1.202.311-3.337-.06-7.48 1.32-9.555l-1.91-6.616c-.066-2.458-.379-4.804.404-7.647l1.95-5.04-.241-3.303c-.246-1.511-.807-2.131-1.254-3.071-.212-.507-.24-1.006.265-1.484l.86-.226c.648.222 1.087.722 1.558 1.179.516.466 1.026.934 1.265 1.595.699 3.866.102 4.734.14 7.071-1.541 3.84-1.167 4.715-1.592 6.763.182 2.923 1.285 5.615 3.318 8.105l29.537 4.24c1.577-.217 3.49-.77 4.777-2.164l2.476-4.445c.377-.99.396-3.114.586-4.699.055-.283.014-.647.44-.623.61.14 2.091 1.431 2.408 2.43.278.229.555.453.83.588.476-.326 1.19-.56 2.582-.528.87.207 1.854.065 2.566.745.696.411 1.364.873 1.924 1.526l2.124 1.368c.264.551.548 1.072.32 2.383-.238.843-.397 1.74-1.007 2.318-.763.558-1.989.758-3.284.904-2.73 1.632-4.174 4.52-5.341 7.678.488 3.767 1.663 7.128 2.528 10.672 1.559 1.722 3.423 3.28 4.47 5.275.286 1.04 1.418 2.521 3.016 4.245.595.051 1.191.124 1.778-.15.553.292 1.127.556 1.456 1.131.434.457 1.222.756-.2 2.042l-4.73.128L49.17 49.343c-2.278-1.75-4.567-3.346-7.179-.06-1.404 2.508-2.745 6.205-4.235 7.139l.05 1.831c3.183 1.82 1.803 2.398 1.154 3.176l-3.815.103c-.652-1.124-.889-2.923-.852-5.17.663-2.685 1.35-5.188 1.84-9.16-2.458.419-5.535.234-9.909-1.209-2.617-.597-4.922-.57-7.19-.467-1.853.966-3.027 2.752-3.993 4.791-1.788.72-2.302 1.932-2.971 3.084.098 1.404.178 2.809 1.537 4.132l.643 1.204 1.932-.103c.396.847 2.212 1.196.483 2.787l-4.578.124c-.128.376-5.068-6.125-5.766-9.923-.423 1.693-.423 4.281-1.343 4.923-.341.797-.435 1.619-.392 2.454.388.393.978.277 1.486.367.93.975.775 1.814.121 2.593z" transform="translate(-1.575 -2.054)"/></svg>